# xmcd
#
# Track frame offsets: 
#        150
#        17000
#        33717
#        49515
#        63335
#        77957
#        92017
#        105797
#        119617
#        133195
#        145720
#        160872
#        174567
#        188620
#        201970
#        215542
#        229562
#        244417
#        259600
#        272292
#        287207
#        303445
#        318715
#        334017
#
# Disc length: 4655 seconds
#
# Revision: 0
# Processed by: cddbd v1.4PL0 Copyright (c) Steve Scherf et al.
# Submitted via: ExactAudioCopy v0.90b4
#
DISCID=56122d18
DTITLE=Charlie McCoy - Complete 1928-1932 Recordings
DYEAR=1992
DGENRE=Blues
TTITLE0=Staggering Blues
TTITLE1=Ha-Ha Blues
TTITLE2=School Girl Blues
TTITLE3=Hidin' On Me
TTITLE4=Sweet Alberta
TTITLE5=It Ain't No Good - Part 1
TTITLE6=Last Time Blues
TTITLE7=It Ain't No Good - Part 2
TTITLE8=Your Valves Need Grinding
TTITLE9=It's Hot Like That
TTITLE10=Glad Hand Blues
TTITLE11=Blue Heaven Blues
TTITLE12=Vicksburg Stomp (Mississippi Mud Steppers)
TTITLE13=Sunset Waltz (Mississippi Mud Steppers)
TTITLE14=That Lonesome Train Took My Baby Away
TTITLE15=Always In Love With You
TTITLE16=I've Been Blue Ever Since You Went Away
TTITLE17=You Gonna Need Me
TTITLE18=It Is So Good - Part 1
TTITLE19=It Is So Good - Part 2
TTITLE20=The Northern Starvers Are Returning Home
TTITLE21=Mississippi I'm Longing For You
TTITLE22=Times Ain't What They Used To Be
TTITLE23=Too Long
EXTD=
EXTT0=
EXTT1=
EXTT2=
EXTT3=
EXTT4=
EXTT5=
EXTT6=
EXTT7=
EXTT8=
EXTT9=
EXTT10=
EXTT11=
EXTT12=
EXTT13=
EXTT14=
EXTT15=
EXTT16=
EXTT17=
EXTT18=
EXTT19=
EXTT20=
EXTT21=
EXTT22=
EXTT23=
PLAYORDER=
